<?xml version="1.0" encoding="utf-8"?>
<!-- Generator: Adobe Illustrator 19.2.0, SVG Export Plug-In . SVG Version: 6.00 Build 0)  -->
<svg version="1.1" id="Camada_1" xmlns="http://www.w3.org/2000/svg" xmlns:xlink="http://www.w3.org/1999/xlink" x="0px" y="0px"
	 viewBox="0 0 156 122.3" style="enable-background:new 0 0 156 122.3;" xml:space="preserve">
<style type="text/css">
	.st0{display:none;}
	.st1{display:inline;fill:#30200D;}
	.st2{fill:#F4F0CB;}
	.st3{fill:#B3A580;}
</style>
<g>
	<g>
		<g class="st0">
			<path class="st1" d="M13.7,31l107.1,15.1c0,0-10.7,62.8-55.2,62.8C20.9,108.9,5.1,36.3,13.7,31z"/>
		</g>
		<g>
			<g>
				<path class="st2" d="M120.5,0c2.3,0,4.3,1.8,4.5,4.2c0.2,2.5,4.2,62.4-22.1,92.4c-8.6,9.8-19.5,15.4-32.4,16.5
					c-0.5,0.2-1.1,0.3-1.7,0.3c-0.9,0-1.7,0-2.6-0.1l-0.7,0l-0.7,0c-0.8,0-1.7,0.1-2.6,0.1c-0.6,0-1.1-0.1-1.7-0.3
					c-12.9-1.1-23.8-6.6-32.4-16.5C1.9,66.6,5.9,6.7,6.1,4.2C6.2,1.8,8.2,0,10.5,0H0v122.3h156V0H120.5z"/>
			</g>
			<path class="st3" d="M68.8,113.4c-0.9,0-1.7,0-2.6-0.1l-0.7,0l-0.7,0c-0.8,0-1.7,0.1-2.6,0.1c-0.6,0-1.1-0.1-1.7-0.3
				c-12.9-1.1-23.8-6.6-32.4-16.5C1.9,66.6,5.9,6.7,6.1,4.2C6.2,1.8,8.2,0,10.5,0h109.9c2.3,0,4.3,1.8,4.5,4.2
				c0.2,2.5,4.2,62.4-22.1,92.4c-8.6,9.8-19.5,15.4-32.4,16.5C69.9,113.3,69.4,113.4,68.8,113.4z M65.5,104.3c0,0,0.1,0,0.1,0l0.9,0
				c0.3,0,0.6,0,0.9,0c0.3-0.1,0.7-0.2,1-0.2c11.2-0.7,20.2-5.1,27.6-13.5c20.1-22.9,20.5-67.9,20.1-81.7H14.8
				c-0.4,13.9,0,58.8,20.1,81.7c7.4,8.4,16.4,12.8,27.6,13.5c0.4,0,0.7,0.1,1,0.2c0.3,0,0.6,0,0.9,0l0.9,0
				C65.4,104.3,65.5,104.3,65.5,104.3z"/>
		</g>
		<g>
			<path class="st3" d="M114.3,72c-2.3,0-4.4-1.5-5.1-3.9c-0.8-2.8,0.8-5.7,3.7-6.5c8.7-2.5,33.3-12.4,32.5-25.3
				c-0.2-2.5-1.1-3.4-1.9-4c-4.2-2.9-14.5-1-18.9,0.3c-2.8,0.9-5.8-0.7-6.6-3.5c-0.9-2.8,0.7-5.8,3.5-6.6c1.9-0.6,18.4-5.5,28.1,1.1
				c2.7,1.9,6.1,5.5,6.5,12.1c0.8,13.1-10.7,22.4-20.4,27.9c-9.7,5.4-19.4,8.2-19.8,8.3C115.2,71.9,114.8,72,114.3,72z"/>
		</g>
		<g>
			<rect x="2.5" y="108.9" class="st3" width="130.8" height="11"/>
			<path class="st3" d="M133.3,122.3H2.5c-1.4,0-2.5-1.1-2.5-2.5v-11c0-1.4,1.1-2.5,2.5-2.5h130.8c1.4,0,2.5,1.1,2.5,2.5v11
				C135.8,121.2,134.7,122.3,133.3,122.3z M5,117.4h125.8v-6H5V117.4z"/>
		</g>
	</g>
</g>
</svg>
