<?xml version="1.0" encoding="utf-8"?>
<!-- Generator: Adobe Illustrator 19.2.0, SVG Export Plug-In . SVG Version: 6.00 Build 0)  -->
<svg version="1.1" id="Camada_1" xmlns="http://www.w3.org/2000/svg" xmlns:xlink="http://www.w3.org/1999/xlink" x="0px" y="0px"
	 viewBox="0 0 573.4 119.3" style="enable-background:new 0 0 573.4 119.3;" xml:space="preserve">
<style type="text/css">
	.st0{fill:#EF851D;}
	.st1{fill:#FFE90B;}
	.st2{fill:#FFFFFF;}
</style>
<polygon class="st0" points="212,4.8 212,23.4 201.3,23.4 200.7,15.6 187.9,15.6 187.9,64.8 195.3,66.2 195.3,74.6 166.4,74.6 
	166.4,66.2 173.8,64.8 173.8,15.6 161,15.6 160.5,23.4 149.8,23.4 149.8,4.8 "/>
<path class="st0" d="M235.5,74.6c-0.4-0.9-0.7-1.8-1-2.7c-0.3-0.9-0.5-1.8-0.7-2.8c-1.7,1.9-3.7,3.5-6.1,4.7
	c-2.4,1.2-5.1,1.8-8.2,1.8c-5.1,0-9.1-1.4-12.1-4.1c-3-2.8-4.5-6.5-4.5-11.3c0-4.9,2-8.6,5.9-11.3c3.9-2.7,9.6-4,17.2-4h7.1v-5.1
	c0-2.5-0.7-4.4-2.2-5.8c-1.4-1.4-3.6-2.1-6.4-2.1c-1.6,0-3,0.2-4.3,0.6c-1.2,0.4-2.3,0.8-3,1.3l-0.9,5.6h-10.6l0-11.5
	c2.6-1.7,5.5-3.2,8.8-4.4c3.3-1.2,6.9-1.8,10.8-1.8c6.4,0,11.7,1.6,15.7,4.7c4,3.2,6,7.6,6,13.5v21.4c0,0.8,0,1.6,0,2.3
	c0,0.7,0.1,1.4,0.2,2l4.3,0.6v8.4H235.5z M223.4,65.3c2.1,0,4-0.5,5.8-1.4c1.7-0.9,3.1-2.1,4-3.4v-7.9H226c-3,0-5.2,0.7-6.8,2.1
	c-1.5,1.4-2.3,3.1-2.3,5c0,1.8,0.6,3.1,1.7,4.1C219.8,64.8,221.4,65.3,223.4,65.3"/>
<path class="st0" d="M248,31.2v-8.4h20.3l0.7,6c1.5-2.2,3.4-4,5.5-5.2c2.1-1.2,4.6-1.8,7.5-1.8c6.4,0,11.4,2.5,15,7.5
	c3.6,5,5.3,11.6,5.3,19.8v1c0,7.7-1.8,13.9-5.3,18.5c-3.6,4.7-8.5,7-14.9,7c-2.7,0-5.1-0.5-7.2-1.5c-2.1-1-3.9-2.5-5.4-4.4v15
	l6.8,1.4v8.4h-27.5v-8.4l6.8-1.4V32.6L248,31.2z M288.3,49.1c0-4.9-0.8-8.9-2.4-11.9c-1.6-3-4.1-4.6-7.5-4.6c-2.1,0-3.9,0.4-5.4,1.3
	c-1.5,0.9-2.7,2.1-3.5,3.7v22.7c0.9,1.5,2,2.6,3.5,3.4c1.5,0.8,3.3,1.2,5.5,1.2c3.4,0,5.9-1.3,7.5-4c1.6-2.7,2.4-6.3,2.4-10.8V49.1z
	"/>
<path class="st0" d="M300.1,31.2v-8.4h20.3l0.7,6c1.5-2.2,3.4-4,5.5-5.2c2.1-1.2,4.6-1.8,7.5-1.8c6.4,0,11.4,2.5,15,7.5
	c3.6,5,5.3,11.6,5.3,19.8v1c0,7.7-1.8,13.9-5.3,18.5c-3.6,4.7-8.5,7-14.9,7c-2.7,0-5.1-0.5-7.2-1.5c-2.1-1-3.9-2.5-5.4-4.4v15
	l6.8,1.4v8.4h-27.5v-8.4l6.8-1.4V32.6L300.1,31.2z M340.4,49.1c0-4.9-0.8-8.9-2.4-11.9c-1.6-3-4.1-4.6-7.5-4.6
	c-2.1,0-3.9,0.4-5.4,1.3c-1.5,0.9-2.7,2.1-3.5,3.7v22.7c0.9,1.5,2,2.6,3.5,3.4c1.5,0.8,3.3,1.2,5.5,1.2c3.4,0,5.9-1.3,7.5-4
	c1.6-2.7,2.4-6.3,2.4-10.8V49.1z"/>
<path class="st1" d="M123.2,119.3c-1.8,0-3.3-0.4-4.6-0.9c-2.6-1-10.5-5.5-5.6-20.2c2.4-7.1,7.4-15.3,14.2-23.2
	c-5-0.8-7.7-3.4-9.1-5.5c-0.9-1.3-1.5-2.9-1.9-4.5c-3.2,4.7-6.8,8.3-10.8,9.8c-3.4,1.2-6.8,0.9-9.9-1c-8.3-5-4.4-14-1.6-20.5
	c3.7-8.6,4.3-11.6,0.5-13.9c-0.7-0.4-2.7-1.6-7.1,1.1c-2.7,1.7-5.4,4.3-7.9,7.4c0.1,1.8,0,3.7-0.2,5.7c-1,9.1-6,21.8-13.7,21.8
	c-0.1,0-0.2,0-0.3,0c-2.4-0.1-4.4-1.6-5.1-4c-1.7-5.3,3.6-16.8,10.4-26c-1-5.2-3.8-6.3-5.8-6.7c-2.5-0.5-6.1,0.9-9.9,3.7
	c0.7,8.5-2,17.9-5.5,24.2c-4,7.2-9,10.4-13.7,8.9c-4-1.3-7.6-5.4-5.7-13.1c1.6-6.5,7-15,13.7-21.7c0.5-0.5,1.2-1.1,1.8-1.7
	c-0.6-1.8-1.5-3.2-2.8-4.3c-4.4-3.9-10.3-5.2-16-3.7C18.7,33.2,12,40.4,8.4,51c-0.8,2.3-3.2,3.5-5.5,2.7c-2.3-0.8-3.5-3.2-2.7-5.5
	c4.6-13.3,13.4-22.6,24.1-25.5c8.5-2.3,17.3-0.3,23.9,5.5c1.8,1.5,3.1,3.4,4.2,5.4c4.2-2.5,9-4.3,13.8-3.4c4.8,0.9,8.4,3.6,10.6,7.7
	c1-1,2-1.9,3-2.7c9.1-7.2,15.8-5.1,19-3.2c10.9,6.6,6.2,17.5,3,24.7c-2.9,6.8-3.3,8.8-1.8,9.7c0.8,0.5,1.5,0.6,2.4,0.3
	c5.3-1.9,12.5-14.5,18.3-31.9c0.7-2.2,3.1-3.5,5.4-2.8c2.2,0.7,3.5,3.1,2.8,5.4c-2.4,7.9-6.8,22.6-3.6,27.4c0.4,0.7,1.3,1.5,3.5,1.8
	c11,1.2,17.6-16,19.8-31.2c0.3-2.1,2.1-3.7,4.2-3.7c2.1-0.1,4,1.5,4.3,3.6c0.7,3.9,0.6,9.8-0.3,16.7c12.6-6.1,26.8-8.8,41-4.9
	c2.3,0.6,3.7,3,3,5.3c-0.6,2.3-3,3.7-5.3,3c-13.9-3.8-28.1,0-40.3,7.2c-3.9,20.4-12.2,44.4-22.9,53.1
	C129.1,118.4,125.9,119.3,123.2,119.3 M144.8,70c-11.7,9.6-20.4,21.7-23.6,31c-0.6,1.9-2.5,8.2,0.6,9.4c0.7,0.3,2.3,0.9,5.1-1.4
	c5.8-4.7,12-17.7,16.7-34.6C144.1,72.9,144.5,71.4,144.8,70 M45.7,51.2c-0.6,0.7-1.2,1.5-1.7,2.2c-5.5,7.5-6.3,12.4-6.1,13.7
	c1.8-1,5.6-6.5,7.5-14.6C45.5,52.1,45.6,51.6,45.7,51.2"/>
<g>
	<path class="st2" d="M398.6,13.7c2.7-2.2,5.4-3.9,8-5.2c2.6-1.2,5.2-2,7.6-2.3c2.4-0.4,4.6-0.3,6.7,0c2,0.4,3.7,1.1,5.2,2.1
		c1.4,1,2.5,2.3,3.2,3.9c0.7,1.6,0.9,3.3,0.7,5.3c-0.3,2.2-1.4,4.2-3.3,5.8c-1.9,1.6-4.2,2.8-7,3.3c-2.8,0.6-5.9,0.5-9.3-0.2
		c-3.4-0.7-6.8-2.3-10-4.9c-3.3,3.4-6,7.3-8.3,11.5c-2.2,4.3-3.9,8.6-5,13c-1.1,4.4-1.7,8.7-1.7,12.9c0,4.2,0.6,7.9,1.8,11.2
		c1.2,3.3,3,5.9,5.4,7.9c2.4,2,5.4,3,9,3c3.3,0,6-0.6,8.1-1.9c2.1-1.3,3.7-2.7,4.8-4.4c1.1-1.6,1.9-3.2,2.3-4.7
		c0.4-1.5,0.7-2.5,0.8-3c0.2-1,0.5-1.7,0.8-2.1c0.3-0.4,0.9-0.6,1.7-0.5c1.5,0.1,2.6,0.7,3.1,1.6c0.5,1,0.6,2.2,0.3,3.6
		c-0.3,1.4-1.1,3-2.2,4.6c-1.1,1.6-2.7,3.1-4.6,4.5c-1.9,1.4-4.2,2.6-6.8,3.5c-2.6,0.9-5.5,1.4-8.8,1.4c-4.3,0-8-1-11.2-3.1
		c-3.2-2.1-5.8-4.8-7.8-8.3c-2-3.5-3.2-7.5-3.8-12.1c-0.6-4.6-0.4-9.3,0.6-14.3c1-5,2.8-10,5.5-15c2.7-5.1,6.3-9.8,10.8-14.4
		c-0.7-0.9-1.4-1.8-2-2.8c-0.6-1-1.3-2-1.9-3.2c-1-1.9-1.4-3.2-1.2-3.8c0.2-0.7,1-1,2.2-1c0.9,0,1.5,0.1,1.9,0.4
		c0.4,0.3,0.8,0.7,1.1,1.3c0.3,0.6,0.7,1.4,1.2,2.4C397,11.1,397.7,12.3,398.6,13.7z M403.1,18.9c2.3,2.1,4.8,3.6,7.4,4.4
		c2.6,0.8,5,1.1,7.1,0.8c2.2-0.3,4-1,5.5-2.1c1.5-1.1,2.3-2.6,2.5-4.4c0.4-1.4,0.1-2.7-0.9-4c-0.9-1.3-2.4-2-4.4-2.3
		c-2-0.3-4.4,0.1-7.4,1.2C410.1,13.6,406.8,15.7,403.1,18.9z"/>
	<path class="st2" d="M468.5,67.2c0.5-0.8,1-1.2,1.5-1.1c0.5,0.1,0.6,0.4,0.3,1.1c-0.9,1.8-1.9,3.4-2.8,4.8
		c-1.6,2.6-3.2,4.4-4.9,5.5c-1.7,1.1-3.3,1.7-4.8,1.8c-1.5,0.1-2.9-0.1-4.2-0.8c-1.3-0.6-2.3-1.4-3-2.3c-1.9,2.2-4,4.1-6.3,5.5
		c-2.3,1.5-4.8,2.2-7.6,2.2c-2.6,0-4.7-0.7-6.1-2c-1.4-1.3-2.4-3-3-5.1c-0.6-2.1-0.7-4.4-0.6-7c0.2-2.6,0.6-5.1,1.1-7.6
		c0.6-2.5,1.3-4.8,2.1-6.9s1.6-3.8,2.3-4.9c0.9-1.6,2.1-2.8,3.3-3.7c1.3-0.9,2.5-1.5,3.6-1.9c1.1-0.4,2-0.4,2.7-0.3
		c0.7,0.2,1,0.6,0.8,1.2c-0.1,0.4-0.4,1-1,1.8c-0.5,0.9-1.2,2-1.9,3.4c-0.7,1.4-1.6,3.3-2.5,5.5c-0.9,2.2-1.8,4.9-2.7,8
		c-0.8,2.8-1.2,5.3-1.4,7.6c-0.2,2.3-0.1,4.2,0.2,5.9c0.3,1.6,0.9,2.8,1.7,3.6s1.8,1,2.9,0.7c1.1-0.3,2.4-1.3,3.9-2.8
		c1.4-1.6,3-3.9,4.6-6.9c-1.3-1.9-2.3-4-3-6.5c-0.7-2.4-1.1-4.9-1.2-7.5s0.1-5.1,0.6-7.5c0.5-2.5,1.2-4.7,2.2-6.6s2.2-3.5,3.7-4.7
		c1.5-1.2,3.2-1.8,5.1-1.8c2,0,3.6,1.1,4.8,3.2c1.2,2.1,1.8,4.9,1.8,8.4c0,3.5-0.7,7.4-2,11.7c-1.4,4.3-3.6,8.7-6.7,13
		c0.4,0.4,0.9,0.8,1.3,1.1c0.4,0.3,0.9,0.6,1.5,0.9c0.6,0.3,1.2,0.5,1.8,0.7c2.4,0.5,4.5-0.1,6.3-1.6
		C464.6,73.9,466.5,71.1,468.5,67.2z M448.3,69.8c2-4.2,3.5-8.1,4.6-11.5c1.1-3.4,1.7-6.4,2-8.9c0.3-2.5,0.2-4.4-0.2-5.7
		c-0.4-1.4-1.1-2-1.9-2c-1,0-1.9,0.5-2.7,1.4c-0.8,0.9-1.5,2.1-2.1,3.7c-0.6,1.5-1,3.3-1.4,5.2c-0.3,2-0.5,4-0.5,6.1
		c0,2.1,0.2,4.1,0.5,6.2C447,66.2,447.5,68.1,448.3,69.8z"/>
	<path class="st2" d="M486.2,14.1c1.3-2.2,2.9-4.1,4.7-5.5c1.8-1.4,3.6-2.3,5.3-2.8s3.1-0.4,4.4,0.2c1.2,0.6,1.9,1.8,2.1,3.6
		c0.1,1.8-0.4,4.2-1.7,7.3c-1.3,3.1-3.5,6.8-6.8,11.3c-0.5,0.8-1.2,1.6-2,2.6c-0.8,0.9-1.7,1.9-2.6,2.9c-1,1-2,1.9-3.1,2.8
		c-1.1,0.9-2.3,1.6-3.5,2.3c-1.5,4.2-3.1,8.6-4.6,13.2c-1.5,4.6-2.9,9.2-4.1,13.8c-1.6,5.9-2.6,11.1-2.9,15.4s-0.4,7.8-0.1,10.6
		c0.3,2.7,0.8,4.7,1.4,5.8c0.6,1.1,1.2,1.5,1.7,1c0.2-0.2,0.6-1,1.1-2.2c0.5-1.2,0.9-2.7,1.4-4.4c0.5-1.7,0.9-3.6,1.3-5.7
		c0.4-2.1,0.7-4.1,0.8-6.1c0.4-3.8,0.4-7.1,0.2-10c-0.2-2.9-0.5-5.5-0.7-7.6c-0.3-2.1-0.4-3.9-0.4-5.2c0-1.3,0.3-2.2,1-2.7
		c0.5-0.3,1-0.4,1.7-0.4c0.6,0.1,1.4,0.2,2.1,0.4c0.8,0.2,1.6,0.5,2.4,0.8c0.9,0.3,1.7,0.5,2.5,0.7c0.8,0.1,1.5,0.1,2.3-0.2
		c0.8-0.2,1.6-0.2,2.3,0c0.4,0.1,0.4,0.4,0.3,0.8c-0.2,0.4-0.5,0.9-1.1,1.3c-0.6,0.4-1.3,0.8-2.1,1c-0.9,0.2-1.7,0.1-2.7-0.3
		c-1.9-0.8-3.3-1.3-4.2-1.7s-1.5-0.4-1.7-0.1c-0.3,0.3-0.3,1-0.1,2c0.2,1,0.4,2.6,0.6,4.7c0.2,2.1,0.3,4.8,0.3,8s-0.3,7.2-0.9,11.8
		c-0.4,2.6-0.8,5.1-1.3,7.5c-0.5,2.4-1.1,4.5-1.7,6.4c-0.6,1.9-1.3,3.3-1.9,4.4c-0.7,1.1-1.3,1.6-2,1.6c-0.4,0-0.9-0.1-1.6-0.4
		c-0.6-0.3-1.3-0.8-2.1-1.5c-0.7-0.7-1.4-1.6-2.1-2.7c-0.7-1.1-1.2-2.5-1.7-4.1c-0.6-2.3-1-4.9-1.1-7.9s0.1-6.1,0.4-9.3
		c0.4-3.3,0.9-6.6,1.6-10c0.7-3.4,1.5-6.8,2.3-10c0.9-3.3,1.7-6.4,2.6-9.3c0.9-2.9,1.8-5.5,2.6-7.8c-1.7-0.3-2.9-0.7-3.7-1.3
		c-0.7-0.6-1.1-1-1.1-1.3c0-0.4,0.2-0.9,0.5-1.4c0.4-0.5,0.7-0.8,1-0.8c0.3,0,0.8,0.3,1.4,0.8c0.6,0.6,1.6,1,2.7,1.4
		c1.5-4,3.1-8,4.9-12.1C482.3,21.4,484.2,17.6,486.2,14.1z M483.7,36.6c1.6-0.9,3.3-2.2,4.9-3.9c1.6-1.7,3.2-3.6,4.7-5.6
		c1.5-2.1,2.8-4.2,3.9-6.3c1.1-2.1,2-4.1,2.7-5.9c0.6-1.8,0.9-3.2,0.9-4.3c-0.1-1.1-0.6-1.7-1.5-1.7c-1.3,0-2.5,0.7-3.7,2
		c-1.2,1.4-2.4,3.3-3.7,5.7c-1.3,2.5-2.6,5.4-3.9,8.8C486.6,28.9,485.2,32.6,483.7,36.6z"/>
	<path class="st2" d="M505.5,14.1c1.3-2.2,2.9-4.1,4.7-5.5c1.8-1.4,3.6-2.3,5.3-2.8s3.1-0.4,4.4,0.2c1.2,0.6,1.9,1.8,2.1,3.6
		c0.1,1.8-0.4,4.2-1.7,7.3c-1.3,3.1-3.5,6.8-6.8,11.3c-0.5,0.8-1.2,1.6-2,2.6c-0.8,0.9-1.7,1.9-2.6,2.9c-1,1-2,1.9-3.1,2.8
		c-1.1,0.9-2.3,1.6-3.5,2.3c-1.5,4.2-3.1,8.6-4.6,13.2c-1.5,4.6-2.9,9.2-4.1,13.8c-1.6,5.9-2.6,11.1-2.9,15.4s-0.4,7.8-0.1,10.6
		c0.3,2.7,0.8,4.7,1.4,5.8c0.6,1.1,1.2,1.5,1.7,1c0.2-0.2,0.6-1,1.1-2.2c0.5-1.2,0.9-2.7,1.4-4.4c0.5-1.7,0.9-3.6,1.3-5.7
		c0.4-2.1,0.7-4.1,0.8-6.1c0.4-3.8,0.4-7.1,0.2-10c-0.2-2.9-0.5-5.5-0.7-7.6c-0.3-2.1-0.4-3.9-0.4-5.2c0-1.3,0.3-2.2,1-2.7
		c0.5-0.3,1-0.4,1.7-0.4c0.6,0.1,1.4,0.2,2.1,0.4c0.8,0.2,1.6,0.5,2.4,0.8c0.9,0.3,1.7,0.5,2.5,0.7c0.8,0.1,1.5,0.1,2.3-0.2
		c0.8-0.2,1.6-0.2,2.3,0c0.4,0.1,0.4,0.4,0.3,0.8c-0.2,0.4-0.5,0.9-1.1,1.3c-0.6,0.4-1.3,0.8-2.1,1c-0.9,0.2-1.7,0.1-2.7-0.3
		c-1.9-0.8-3.3-1.3-4.2-1.7s-1.5-0.4-1.7-0.1c-0.3,0.3-0.3,1-0.1,2c0.2,1,0.4,2.6,0.6,4.7c0.2,2.1,0.3,4.8,0.3,8s-0.3,7.2-0.9,11.8
		c-0.4,2.6-0.8,5.1-1.3,7.5c-0.5,2.4-1.1,4.5-1.7,6.4c-0.6,1.9-1.3,3.3-1.9,4.4c-0.7,1.1-1.3,1.6-2,1.6c-0.4,0-0.9-0.1-1.6-0.4
		c-0.6-0.3-1.3-0.8-2.1-1.5c-0.7-0.7-1.4-1.6-2.1-2.7c-0.7-1.1-1.2-2.5-1.7-4.1c-0.6-2.3-1-4.9-1.1-7.9s0.1-6.1,0.4-9.3
		c0.4-3.3,0.9-6.6,1.6-10c0.7-3.4,1.5-6.8,2.3-10c0.9-3.3,1.7-6.4,2.6-9.3c0.9-2.9,1.8-5.5,2.6-7.8c-1.7-0.3-2.9-0.7-3.7-1.3
		c-0.7-0.6-1.1-1-1.1-1.3c0-0.4,0.2-0.9,0.5-1.4c0.4-0.5,0.7-0.8,1-0.8c0.3,0,0.8,0.3,1.4,0.8c0.6,0.6,1.6,1,2.7,1.4
		c1.5-4,3.1-8,4.9-12.1C501.6,21.4,503.5,17.6,505.5,14.1z M503,36.6c1.6-0.9,3.3-2.2,4.9-3.9c1.6-1.7,3.2-3.6,4.7-5.6
		c1.5-2.1,2.8-4.2,3.9-6.3c1.1-2.1,2-4.1,2.7-5.9c0.6-1.8,0.9-3.2,0.9-4.3C520,9.5,519.5,9,518.6,9c-1.3,0-2.5,0.7-3.7,2
		c-1.2,1.4-2.4,3.3-3.7,5.7c-1.3,2.5-2.6,5.4-3.9,8.8C505.9,28.9,504.5,32.6,503,36.6z"/>
	<path class="st2" d="M540,67.2c0.5-0.8,1-1.2,1.5-1.1c0.5,0.1,0.6,0.4,0.3,1.1c-1.2,2.4-2.6,4.6-4,6.7s-3,3.8-4.7,5.3
		c-1.7,1.5-3.6,2.7-5.8,3.6c-2.1,0.9-4.6,1.3-7.3,1.3c-3.6,0-6.6-0.5-8.9-1.6c-2.4-1.1-4.2-2.6-5.4-4.5c-1.2-2-1.9-4.3-2-7
		c-0.1-2.7,0.3-5.8,1.1-9.1c1.2-4.5,2.8-8.2,4.7-11.3c1.9-3.1,3.9-5.6,6-7.5c2.1-1.9,4.2-3.3,6.4-4.1c2.1-0.8,4-1.2,5.7-1.2
		c1.5,0,2.7,0.3,3.8,1c1.1,0.6,1.9,1.4,2.5,2.4c0.6,0.9,1,2,1.2,3c0.2,1.1,0.2,2.1,0,3c-0.1,0.4-0.3,0.9-0.7,1.7
		c-0.3,0.8-0.8,1.6-1.4,2.6c-0.6,1-1.3,2-2.1,3c-0.8,1-1.7,2-2.7,2.9c-1.2,1.1-2.6,2-4.1,2.8c-1.5,0.8-3,1.4-4.5,1.9
		c-1.5,0.4-2.9,0.6-4.2,0.5s-2.4-0.5-3.3-1.4c-1,3.6-1.3,6.8-0.9,9.5c0.4,2.8,1.3,5,2.7,6.7c1.4,1.7,3.2,2.9,5.2,3.5
		c2.1,0.6,4.3,0.5,6.7-0.2c2.4-0.7,4.8-2.2,7.2-4.3C535.8,73.9,538,71,540,67.2z M530.2,44.8c0.6-2.3,0.5-3.9-0.5-4.6
		c-1-0.7-2.3-0.6-4.1,0.4c-1.8,1-3.8,2.8-6,5.5c-2.2,2.7-4.2,6.3-5.9,10.8c0.5,1.3,1.5,1.9,3,1.8c1.5-0.1,3.1-0.7,4.8-1.8
		c1.7-1.1,3.4-2.8,5.1-4.8C528.1,50.1,529.4,47.7,530.2,44.8z"/>
	<path class="st2" d="M571.4,67.2c0.5-0.8,1-1.2,1.5-1.1c0.5,0.1,0.6,0.4,0.3,1.1c-1.2,2.4-2.6,4.6-4,6.7s-3,3.8-4.7,5.3
		c-1.7,1.5-3.6,2.7-5.8,3.6c-2.1,0.9-4.6,1.3-7.3,1.3c-3.6,0-6.6-0.5-8.9-1.6c-2.4-1.1-4.2-2.6-5.4-4.5c-1.2-2-1.9-4.3-2-7
		c-0.1-2.7,0.3-5.8,1.1-9.1c1.2-4.5,2.8-8.2,4.7-11.3c1.9-3.1,3.9-5.6,6-7.5c2.1-1.9,4.2-3.3,6.4-4.1c2.1-0.8,4-1.2,5.7-1.2
		c1.5,0,2.7,0.3,3.8,1c1.1,0.6,1.9,1.4,2.5,2.4c0.6,0.9,1,2,1.2,3c0.2,1.1,0.2,2.1,0,3c-0.1,0.4-0.3,0.9-0.7,1.7
		c-0.3,0.8-0.8,1.6-1.4,2.6c-0.6,1-1.3,2-2.1,3c-0.8,1-1.7,2-2.7,2.9c-1.2,1.1-2.6,2-4.1,2.8c-1.5,0.8-3,1.4-4.5,1.9
		c-1.5,0.4-2.9,0.6-4.2,0.5s-2.4-0.5-3.3-1.4c-1,3.6-1.3,6.8-0.9,9.5c0.4,2.8,1.3,5,2.7,6.7c1.4,1.7,3.2,2.9,5.2,3.5
		c2.1,0.6,4.3,0.5,6.7-0.2c2.4-0.7,4.8-2.2,7.2-4.3C567.2,73.9,569.4,71,571.4,67.2z M561.7,44.8c0.6-2.3,0.5-3.9-0.5-4.6
		c-1-0.7-2.3-0.6-4.1,0.4c-1.8,1-3.8,2.8-6,5.5c-2.2,2.7-4.2,6.3-5.9,10.8c0.5,1.3,1.5,1.9,3,1.8c1.5-0.1,3.1-0.7,4.8-1.8
		c1.7-1.1,3.4-2.8,5.1-4.8C559.6,50.1,560.8,47.7,561.7,44.8z"/>
</g>
</svg>
